<svg xmlns="http://www.w3.org/2000/svg" xmlns:xlink="http://www.w3.org/1999/xlink" width="500" zoomAndPan="magnify" viewBox="0 0 375 374.999991" height="500" preserveAspectRatio="xMidYMid meet" version="1.0"><defs><clipPath id="da0fa56999"><path d="M 11.375 14 L 363.875 14 L 363.875 361.355469 L 11.375 361.355469 Z M 11.375 14 " clip-rule="nonzero"/></clipPath></defs><path fill="#ffffff" d="M 110.324219 162.355469 L 150.425781 162.355469 L 150.425781 202.398438 L 110.324219 202.398438 Z M 110.324219 162.355469 " fill-opacity="1" fill-rule="nonzero"/><path fill="#ffffff" d="M 169.128906 162.355469 L 209.230469 162.355469 L 209.230469 202.398438 L 169.128906 202.398438 Z M 169.128906 162.355469 " fill-opacity="1" fill-rule="nonzero"/><path fill="#ffffff" d="M 110.324219 220 L 150.425781 220 L 150.425781 260.042969 L 110.324219 260.042969 Z M 110.324219 220 " fill-opacity="1" fill-rule="nonzero"/><path fill="#ffffff" d="M 169.128906 220 L 209.230469 220 L 209.230469 260.042969 L 169.128906 260.042969 Z M 169.128906 220 " fill-opacity="1" fill-rule="nonzero"/><g clip-path="url(#da0fa56999)"><path fill="#ffffff" d="M 360.300781 206.972656 L 358.570312 205.464844 C 354.722656 202.925781 350.660156 202.214844 346.078125 203.75 C 343.210938 204.703125 340.808594 207.71875 339.933594 211.042969 C 339.492188 212.71875 339.027344 214.394531 338.539062 216.058594 C 338.253906 217.011719 337.96875 217.964844 337.671875 218.90625 C 316.066406 287.414062 251.828125 337.25 176.175781 337.25 C 142.425781 337.25 110.957031 327.339844 84.535156 310.265625 C 25.597656 272.222656 17.363281 189.210938 66.527344 139.210938 L 152.582031 51.691406 C 156.878906 47.320312 163.925781 47.269531 168.289062 51.574219 L 277.679688 159.660156 L 277.820312 159.804688 C 279.964844 161.902344 282.90625 163.21875 286.148438 163.21875 C 292.589844 163.21875 297.789062 158.101562 298.007812 151.734375 C 298.007812 151.605469 298.046875 151.476562 298.046875 151.347656 C 298.046875 151.21875 298.007812 151.089844 298.007812 150.960938 L 298.007812 150.886719 C 298.007812 147.933594 296.820312 145.097656 294.71875 143.023438 L 168.046875 17.886719 C 163.683594 13.582031 156.648438 13.632812 152.335938 18.003906 L 46.949219 125.136719 C 32.105469 140.238281 21.042969 158.746094 15.558594 179.171875 C 11.480469 194.34375 11.386719 206.148438 11.542969 210.695312 C 11.632812 213.117188 11.660156 215.527344 11.75 217.953125 C 14.78125 299.441406 88.40625 361.066406 176.164062 361.066406 C 258.242188 361.066406 328.496094 309.683594 356.363281 237.4375 C 358.390625 232.21875 360.132812 226.855469 361.695312 221.417969 C 362.351562 219.34375 362.261719 219.78125 362.507812 218.671875 C 362.558594 218.492188 362.625 218.3125 362.675781 218.132812 C 363.875 212.925781 362.378906 209.265625 360.300781 206.972656 Z M 360.300781 206.972656 " fill-opacity="1" fill-rule="nonzero"/></g></svg>